<svg width="264" height="280" viewBox="0 0 264 280" fill="none" xmlns="http://www.w3.org/2000/svg">
<g id="breno 1">
<g id="Avataaar">
<g id="Avataaar/Circle">
<g id="Group">
<g id="Circle">
<mask id="mask0" mask-type="alpha" maskUnits="userSpaceOnUse" x="12" y="40" width="240" height="240">
<g id="mask 2">
<path id="Vector" d="M132 280C198.274 280 252 226.274 252 160C252 93.7258 198.274 40 132 40C65.7258 40 12 93.7258 12 160C12 226.274 65.7258 280 132 280Z" fill="white"/>
</g>
</mask>
<g mask="url(#mask0)">
<path id="Circle Background" d="M132 280C198.274 280 252 226.274 252 160C252 93.7258 198.274 40 132 40C65.7258 40 12 93.7258 12 160C12 226.274 65.7258 280 132 280Z" fill="#E6E6E6"/>
<g id="Color/Palette/Blue 01">
<path id="&#240;&#159;&#150;&#141;Color" d="M252 40H12V280H252V40Z" fill="#CF68FF"/>
</g>
</g>
</g>
<mask id="mask1" mask-type="alpha" maskUnits="userSpaceOnUse" x="0" y="0" width="264" height="280">
<g id="mask 4">
<path id="Vector_2" d="M12 160C12 226.274 65.7258 280 132 280C198.274 280 252 226.274 252 160H264V0H0V160H12Z" fill="white"/>
</g>
</mask>
<g mask="url(#mask1)">
<g id="Avataaar_2">
<g id="Body">
<mask id="mask2" mask-type="alpha" maskUnits="userSpaceOnUse" x="32" y="36" width="200" height="244">
<g id="mask 6">
<path id="Vector_3" d="M156 180.611V199H160C199.764 199 232 231.236 232 271V280H32V271C32 231.236 64.2355 199 104 199H108V180.611C90.7626 172.422 78.3722 155.687 76.3051 135.881C70.4803 135.058 66 130.052 66 124V110C66 104.054 70.3246 99.1181 76 98.1659V92C76 61.0721 101.072 36 132 36C162.928 36 188 61.0721 188 92V98.1659C193.675 99.1181 198 104.054 198 110V124C198 130.052 193.52 135.058 187.695 135.881C185.628 155.687 173.237 172.422 156 180.611Z" fill="white"/>
</g>
</mask>
<g mask="url(#mask2)">
<path id="Vector_4" d="M156 180.611V199H160C199.764 199 232 231.236 232 271V280H32V271C32 231.236 64.2355 199 104 199H108V180.611C90.7626 172.422 78.3722 155.687 76.3051 135.881C70.4803 135.058 66 130.052 66 124V110C66 104.054 70.3246 99.1181 76 98.1659V92C76 61.0721 101.072 36 132 36C162.928 36 188 61.0721 188 92V98.1659C193.675 99.1181 198 104.054 198 110V124C198 130.052 193.52 135.058 187.695 135.881C185.628 155.687 173.237 172.422 156 180.611Z" fill="#D0C6AC"/>
<g id="Skin/&#240;&#159;&#145;&#182;&#240;&#159;&#143;&#189; 03 Brown">
<g id="Color">
<path id="Vector_5" d="M264 36H0V280H264V36Z" fill="#F9D1AE"/>
</g>
</g>
<path id="Neck Shadow" fill-rule="evenodd" clip-rule="evenodd" d="M188 115V138C188 168.928 162.928 194 132 194C101.072 194 76 168.928 76 138V115V130C76 160.928 101.072 186 132 186C162.928 186 188 160.928 188 130V115Z" fill="black" fill-opacity="0.1"/>
</g>
</g>
<g id="Clothing/Hoodie">
<mask id="mask3" mask-type="alpha" maskUnits="userSpaceOnUse" x="32" y="183" width="200" height="97">
<g id="react mask 2">
<path id="Vector_6" fill-rule="evenodd" clip-rule="evenodd" d="M108 183.071C90.0813 185.076 76.2798 190.552 76.0042 204.645C50.1464 215.568 32 241.165 32 270.999V280H232V270.999C232 241.165 213.854 215.568 187.996 204.645C187.72 190.552 173.919 185.076 156 183.071V202C156 215.255 145.255 226 132 226C118.745 226 108 215.255 108 202V183.071Z" fill="white"/>
</g>
</mask>
<g mask="url(#mask3)">
<path id="Hoodie" fill-rule="evenodd" clip-rule="evenodd" d="M108 183.071C90.0813 185.076 76.2798 190.552 76.0042 204.645C50.1464 215.568 32 241.165 32 270.999V280H232V270.999C232 241.165 213.854 215.568 187.996 204.645C187.72 190.552 173.919 185.076 156 183.071V202C156 215.255 145.255 226 132 226C118.745 226 108 215.255 108 202V183.071Z" fill="#B7C1DB"/>
<g id="Color/Palette/Gray 01">
<path id="&#240;&#159;&#150;&#141;Color_2" d="M264 170H0V280H264V170Z" fill="#FFFF89"/>
</g>
<path id="Straps" fill-rule="evenodd" clip-rule="evenodd" d="M102 231.739V280H95V228.15C97.2038 229.46 99.5468 230.661 102 231.739ZM169 228.15V268.5C169 270.433 167.433 272 165.5 272C163.567 272 162 270.433 162 268.5V231.739C164.453 230.661 166.796 229.46 169 228.15Z" fill="#ABABAB"/>
<path id="Shadow" fill-rule="evenodd" clip-rule="evenodd" d="M90.9601 182.724C75.9093 185.571 65.5 191.243 65.5 202.308C65.5 222.02 98.5377 238 132 238C165.462 238 198.5 222.02 198.5 202.308C198.5 191.243 188.091 185.571 173.04 182.724C182.125 186.074 188 191.706 188 201.077C188 221.469 160.179 238 132 238C103.821 238 76 221.469 76 201.077C76 191.706 81.8751 186.074 90.9601 182.724Z" fill="black" fill-opacity="0.16"/>
</g>
</g>
<g id="Face">
<g id="boca_2">
<path id="Mouth" fill-rule="evenodd" clip-rule="evenodd" d="M118 149C118 156.732 124.268 163 132 163C139.732 163 146 156.732 146 149" fill="black" fill-opacity="0.7"/>
</g>
<g id="boca_1">
<path id="Why so serious?" d="M141 154H123C121.343 154 120 155.343 120 157C120 158.657 121.343 160 123 160H141C142.657 160 144 158.657 144 157C144 155.343 142.657 154 141 154Z" fill="black" fill-opacity="0.7"/>
</g>
<g id="Nose/Default">
<path id="Nose" fill-rule="evenodd" clip-rule="evenodd" d="M120 130C120 134.418 125.373 138 132 138C138.627 138 144 134.418 144 130" fill="black" fill-opacity="0.16"/>
</g>
<g id="Eyes/Default &#240;&#159;&#152;&#128;">
<path id="Eye" d="M106 118C109.314 118 112 115.314 112 112C112 108.686 109.314 106 106 106C102.686 106 100 108.686 100 112C100 115.314 102.686 118 106 118Z" fill="black" fill-opacity="0.6"/>
<path id="Eye_2" d="M158 118C161.314 118 164 115.314 164 112C164 108.686 161.314 106 158 106C154.686 106 152 108.686 152 112C152 115.314 154.686 118 158 118Z" fill="black" fill-opacity="0.6"/>
</g>
<g id="Eyebrow/Outline/Default">
<g id="I Browse">
<path id="Eyebrow" d="M91.6302 99.1586C95.5452 93.6499 106.278 90.5608 115.523 92.8312C116.596 93.0946 117.679 92.4386 117.942 91.3659C118.206 90.2932 117.55 89.21 116.477 88.9466C105.74 86.31 93.3121 89.887 88.3698 96.8414C87.7299 97.7418 87.9411 98.9904 88.8414 99.6303C89.7418 100.27 90.9904 100.059 91.6302 99.1586Z" fill="black" fill-opacity="0.6"/>
<path id="Eyebrow_2" d="M172.37 99.1586C168.455 93.6499 157.722 90.5608 148.477 92.8312C147.405 93.0946 146.321 92.4386 146.058 91.3659C145.795 90.2932 146.451 89.21 147.523 88.9466C158.26 86.31 170.688 89.887 175.631 96.8414C176.27 97.7418 176.059 98.9904 175.159 99.6303C174.259 100.27 173.01 100.059 172.37 99.1586Z" fill="black" fill-opacity="0.6"/>
</g>
</g>
</g>
<g id="Top">
<mask id="mask4" mask-type="alpha" maskUnits="userSpaceOnUse" x="0" y="0" width="264" height="280">
<g id="react mask 5">
<path id="Vector_7" d="M264 0H0V280H264V0Z" fill="white"/>
</g>
</mask>
<g mask="url(#mask4)">
<g id="Top/Short Hair/Short Curly">
<g id="Group_2">
<g id="Facial Hair/Beard Light">
<mask id="mask5" mask-type="alpha" maskUnits="userSpaceOnUse" x="75" y="98" width="114" height="89">
<g id="react mask 8">
<path id="Vector_8" fill-rule="evenodd" clip-rule="evenodd" d="M149.428 170.169C146.915 172.463 144.237 173.494 140.853 172.773C140.271 172.649 137.896 168.235 132 168.235C126.103 168.235 123.729 172.649 123.147 172.773C119.762 173.494 117.085 172.463 114.571 170.169C109.846 165.856 105.917 159.908 108.278 153.419C109.508 150.037 111.51 146.324 115.151 145.246C119.038 144.096 124.497 145.244 128.415 144.458C129.684 144.204 131.071 143.751 132 143C132.929 143.751 134.316 144.204 135.585 144.458C139.503 145.244 144.961 144.096 148.849 145.246C152.49 146.324 154.491 150.037 155.722 153.419C158.083 159.908 154.154 165.856 149.428 170.169ZM188.081 98C184.671 106.4 185.988 116.858 185.357 125.676C184.844 132.843 183.337 143.586 176.973 148.215C173.718 150.582 167.794 154.56 163.542 153.45C160.615 152.686 160.302 144.29 156.455 141.147C152.092 137.582 146.643 136.016 141.149 136.258C138.779 136.362 133.984 136.337 132 138.16C130.016 136.337 125.222 136.362 122.851 136.258C117.357 136.016 111.908 137.582 107.545 141.147C103.698 144.29 103.386 152.686 100.458 153.45C96.2058 154.56 90.2818 150.582 87.027 148.215C80.6624 143.586 79.1562 132.843 78.6429 125.676C78.0121 116.858 79.3292 106.4 75.9188 98C74.2598 98 75.354 114.129 75.354 114.129V134.485C75.3857 149.773 84.9351 172.655 106.108 181.393C111.286 183.53 123.015 187 132 187C140.985 187 152.714 183.86 157.892 181.723C179.065 172.986 188.614 149.773 188.646 134.485V114.129C188.646 114.129 189.74 98 188.081 98Z" fill="white"/>
</g>
</mask>
<g mask="url(#mask5)">
<path id="Lite Beard" fill-rule="evenodd" clip-rule="evenodd" d="M149.428 170.169C146.915 172.463 144.237 173.494 140.853 172.773C140.271 172.649 137.896 168.235 132 168.235C126.103 168.235 123.729 172.649 123.147 172.773C119.762 173.494 117.085 172.463 114.571 170.169C109.846 165.856 105.917 159.908 108.278 153.419C109.508 150.037 111.51 146.324 115.151 145.246C119.038 144.096 124.497 145.244 128.415 144.458C129.684 144.204 131.071 143.751 132 143C132.929 143.751 134.316 144.204 135.585 144.458C139.503 145.244 144.961 144.096 148.849 145.246C152.49 146.324 154.491 150.037 155.722 153.419C158.083 159.908 154.154 165.856 149.428 170.169ZM188.081 98C184.671 106.4 185.988 116.858 185.357 125.676C184.844 132.843 183.337 143.586 176.973 148.215C173.718 150.582 167.794 154.56 163.542 153.45C160.615 152.686 160.302 144.29 156.455 141.147C152.092 137.582 146.643 136.016 141.149 136.258C138.779 136.362 133.984 136.337 132 138.16C130.016 136.337 125.222 136.362 122.851 136.258C117.357 136.016 111.908 137.582 107.545 141.147C103.698 144.29 103.386 152.686 100.458 153.45C96.2058 154.56 90.2818 150.582 87.027 148.215C80.6624 143.586 79.1562 132.843 78.6429 125.676C78.0121 116.858 79.3292 106.4 75.9188 98C74.2598 98 75.354 114.129 75.354 114.129V134.485C75.3857 149.773 84.9351 172.655 106.108 181.393C111.286 183.53 123.015 187 132 187C140.985 187 152.714 183.86 157.892 181.723C179.065 172.986 188.614 149.773 188.646 134.485V114.129C188.646 114.129 189.74 98 188.081 98Z" fill="#331B0C"/>
<g id="Color/Hair/Brown">
<g id="Color_2">
<path id="Vector_9" d="M280 72H16V316H280V72Z" fill="#2C1B18"/>
</g>
</g>
</g>
</g>
<mask id="mask6" mask-type="alpha" maskUnits="userSpaceOnUse" x="72" y="9" width="121" height="91">
<g id="react mask 4">
<path id="Vector_10" fill-rule="evenodd" clip-rule="evenodd" d="M93.2519 52.0221C93.3749 51.9677 93.0697 51.9468 92.3361 51.9595C93.2277 51.9577 93.5329 51.9785 93.2519 52.0221ZM85.117 36.3016C85.1148 36.282 85.1338 36.4527 85.117 36.3016V36.3016ZM192.765 70.7657C192.501 67.4487 192.033 64.1519 191.247 60.9111C190.622 58.3354 189.769 55.8775 188.76 53.42C188.151 51.9354 186.728 49.8961 186.56 48.2945C186.395 46.7169 187.627 44.9691 187.889 43.1323C188.144 41.3448 188.101 39.4652 187.734 37.6939C186.901 33.671 184.14 29.93 179.877 28.8814C178.925 28.6472 176.913 28.9358 176.241 28.3816C175.47 27.746 174.933 25.5807 174.235 24.7122C172.244 22.2362 169.14 20.6417 165.866 21.1976C163.455 21.6068 164.839 22.1053 163.032 20.6864C162.027 19.8976 161.276 18.6932 160.3 17.8392C158.833 16.5564 157.15 15.4582 155.408 14.557C150.851 12.1989 145.654 10.4849 140.564 9.64943C131.279 8.12524 121.369 9.45409 112.369 11.8688C107.89 13.0703 103.382 14.5952 99.2221 16.6118C97.4386 17.4764 96.409 18.1936 94.5495 18.4201C91.6207 18.7767 89.1405 18.7589 86.3661 20.001C77.8298 23.8229 73.9849 32.6898 77.3067 41.175C77.9748 42.8816 78.8795 44.3802 80.1267 45.7586C81.6475 47.4393 82.1976 47.1085 80.8878 49.0412C78.929 51.9312 77.2777 55.0129 75.9333 58.2129C72.4043 66.6146 71.8138 76.0772 72.0436 85.0373C72.124 88.1741 72.2586 91.3495 72.7532 94.4562C72.9668 95.8009 73.0267 98.3293 74.0354 99.3271C74.5471 99.8331 75.2762 100.115 76.0036 99.9138C77.7131 99.4402 77.1253 98.1787 77.165 97.0076C77.3649 91.124 77.095 85.9191 78.4943 80.1065C79.5279 75.8119 81.2505 71.9115 83.4828 68.0714C86.3214 63.1872 89.3857 58.8977 93.2895 54.7155C94.2073 53.732 94.4079 53.3151 95.6386 53.2438C96.5705 53.19 97.9338 53.8282 98.8399 54.0492C100.838 54.5361 102.839 55.0174 104.873 55.3453C108.613 55.9482 112.317 55.9886 116.09 55.8704C123.516 55.6381 130.975 55.1172 138.175 53.2471C142.957 52.0054 147.197 49.7762 151.777 48.1422C151.859 48.1131 153.007 47.2951 153.208 47.3285C153.489 47.3748 155.185 49.1543 155.471 49.3784C157.697 51.1239 160.138 51.8567 162.541 53.2082C165.505 54.8746 162.635 52.49 164.269 54.5668C164.746 55.1716 164.99 56.2932 165.372 56.9783C166.588 59.1611 168.28 61.0795 170.303 62.6018C172.258 64.0725 175.196 64.7829 176.193 66.6972C176.962 68.1741 177.221 70.1813 177.841 71.7579C179.469 75.8932 181.618 79.7495 183.767 83.6443C185.499 86.7831 187.392 89.525 187.585 93.1118C187.652 94.3603 186.464 101.849 189.358 99.5717C189.786 99.2341 190.711 95.4157 190.901 94.7678C191.673 92.1351 191.947 89.3867 192.296 86.6817C192.99 81.3022 193.219 76.1837 192.765 70.7657Z" fill="white"/>
</g>
</mask>
<g mask="url(#mask6)">
<path id="Short Hair" fill-rule="evenodd" clip-rule="evenodd" d="M93.2519 52.0221C93.3749 51.9677 93.0697 51.9468 92.3361 51.9595C93.2277 51.9577 93.5329 51.9785 93.2519 52.0221ZM85.117 36.3016C85.1148 36.282 85.1338 36.4527 85.117 36.3016V36.3016ZM192.765 70.7657C192.501 67.4487 192.033 64.1519 191.247 60.9111C190.622 58.3354 189.769 55.8775 188.76 53.42C188.151 51.9354 186.728 49.8961 186.56 48.2945C186.395 46.7169 187.627 44.9691 187.889 43.1323C188.144 41.3448 188.101 39.4652 187.734 37.6939C186.901 33.671 184.14 29.93 179.877 28.8814C178.925 28.6472 176.913 28.9358 176.241 28.3816C175.47 27.746 174.933 25.5807 174.235 24.7122C172.244 22.2362 169.14 20.6417 165.866 21.1976C163.455 21.6068 164.839 22.1053 163.032 20.6864C162.027 19.8976 161.276 18.6932 160.3 17.8392C158.833 16.5564 157.15 15.4582 155.408 14.557C150.851 12.1989 145.654 10.4849 140.564 9.64943C131.279 8.12524 121.369 9.45409 112.369 11.8688C107.89 13.0703 103.382 14.5952 99.2221 16.6118C97.4386 17.4764 96.409 18.1936 94.5495 18.4201C91.6207 18.7767 89.1405 18.7589 86.3661 20.001C77.8298 23.8229 73.9849 32.6898 77.3067 41.175C77.9748 42.8816 78.8795 44.3802 80.1267 45.7586C81.6475 47.4393 82.1976 47.1085 80.8878 49.0412C78.929 51.9312 77.2777 55.0129 75.9333 58.2129C72.4043 66.6146 71.8138 76.0772 72.0436 85.0373C72.124 88.1741 72.2586 91.3495 72.7532 94.4562C72.9668 95.8009 73.0267 98.3293 74.0354 99.3271C74.5471 99.8331 75.2762 100.115 76.0036 99.9138C77.7131 99.4402 77.1253 98.1787 77.165 97.0076C77.3649 91.124 77.095 85.9191 78.4943 80.1065C79.5279 75.8119 81.2505 71.9115 83.4828 68.0714C86.3214 63.1872 89.3857 58.8977 93.2895 54.7155C94.2073 53.732 94.4079 53.3151 95.6386 53.2438C96.5705 53.19 97.9338 53.8282 98.8399 54.0492C100.838 54.5361 102.839 55.0174 104.873 55.3453C108.613 55.9482 112.317 55.9886 116.09 55.8704C123.516 55.6381 130.975 55.1172 138.175 53.2471C142.957 52.0054 147.197 49.7762 151.777 48.1422C151.859 48.1131 153.007 47.2951 153.208 47.3285C153.489 47.3748 155.185 49.1543 155.471 49.3784C157.697 51.1239 160.138 51.8567 162.541 53.2082C165.505 54.8746 162.635 52.49 164.269 54.5668C164.746 55.1716 164.99 56.2932 165.372 56.9783C166.588 59.1611 168.28 61.0795 170.303 62.6018C172.258 64.0725 175.196 64.7829 176.193 66.6972C176.962 68.1741 177.221 70.1813 177.841 71.7579C179.469 75.8932 181.618 79.7495 183.767 83.6443C185.499 86.7831 187.392 89.525 187.585 93.1118C187.652 94.3603 186.464 101.849 189.358 99.5717C189.786 99.2341 190.711 95.4157 190.901 94.7678C191.673 92.1351 191.947 89.3867 192.296 86.6817C192.99 81.3022 193.219 76.1837 192.765 70.7657Z" fill="#28354B"/>
<g id="Skin/&#240;&#159;&#145;&#182;&#240;&#159;&#143;&#189; 03 Brown_2">
<g id="Color_3">
<path id="Vector_11" d="M263 0H-1V280H263V0Z" fill="#2C1B18"/>
</g>
</g>
<g id="Top/ Resources/Prescription 01">
<g id="Glasses" filter="url(#filter0_d)">
<path id="Frame Stuff" fill-rule="evenodd" clip-rule="evenodd" d="M115.249 100.275C117.621 100.297 118.742 100.692 119.146 103.165C119.555 105.67 119.157 108.487 118.685 110.955C117.965 114.723 116.767 118.414 113.978 121.168C112.508 122.619 110.717 123.775 108.811 124.564C107.799 124.983 106.73 125.286 105.661 125.516C105.349 125.583 102.682 125.95 104.318 125.763C100.501 126.199 96.3601 126.182 93.1724 123.752C89.6396 121.06 87.2203 116.8 86.1565 112.556C85.5341 110.073 84.2263 104.134 86.6159 102.149C89.3532 99.8745 115.249 100.275 115.249 100.275ZM91.2178 93.4905C85.7775 93.6778 82.1467 94.6338 79.4633 100.069C74.5457 110.03 82.9628 124.969 92.3523 129.039C103.329 133.799 115.592 128.532 121.396 119.006C124.469 113.962 126.022 106.323 125.922 100.504C125.795 93.0765 120.607 92.8705 114.509 93.0338L91.2178 93.4905Z" fill="#D6EAF2"/>
<path id="Frame Stuff_2" fill-rule="evenodd" clip-rule="evenodd" d="M148.681 100.273C146.309 100.295 145.188 100.689 144.784 103.163C144.374 105.668 144.772 108.485 145.244 110.952C145.965 114.72 147.163 118.412 149.952 121.166C151.421 122.616 153.213 123.772 155.119 124.562C156.131 124.981 157.2 125.284 158.268 125.513C158.581 125.58 161.247 125.948 159.612 125.761C163.429 126.197 167.57 126.179 170.757 123.75C174.29 121.058 176.709 116.798 177.773 112.554C178.396 110.071 179.703 104.132 177.314 102.147C174.576 99.8719 148.681 100.273 148.681 100.273ZM172.712 93.4879C178.152 93.6752 181.783 94.6316 184.466 100.067C189.384 110.028 180.967 124.966 171.577 129.037C160.6 133.797 148.338 128.529 142.534 119.004C139.461 113.96 137.907 106.321 138.007 100.501C138.135 93.0739 143.323 92.8679 149.421 93.0316L172.712 93.4879Z" fill="#D6EAF2"/>
<path id="Frame Stuff_3" fill-rule="evenodd" clip-rule="evenodd" d="M82.1969 97.9267C78.785 98.1184 74.8861 98.1644 71.6901 99.6394C68.3054 101.201 67.7823 104.739 72.0492 105.226C73.9709 105.446 75.8949 105.083 77.7872 104.745C79.3369 104.468 81.442 104.558 82.9065 103.966C85.6355 102.862 85.4603 97.74 82.1969 97.9267Z" fill="#D6EAF2"/>
<path id="Frame Stuff_4" fill-rule="evenodd" clip-rule="evenodd" d="M181.735 97.9267C185.147 98.1184 189.046 98.1644 192.242 99.6394C195.626 101.201 196.149 104.739 191.882 105.226C189.961 105.446 188.037 105.083 186.144 104.745C184.595 104.468 182.49 104.558 181.025 103.966C178.296 102.862 178.471 97.74 181.735 97.9267Z" fill="#D6EAF2"/>
<path id="Frame Stuff_5" fill-rule="evenodd" clip-rule="evenodd" d="M142.109 100.013C140.163 97.7126 135.091 96.3846 131.891 96.3846C128.691 96.3846 123.768 97.7126 121.822 100.013C120.841 101.172 120.807 102.724 122.508 103.451C124.626 104.357 126.517 102.714 128.213 101.855C130.381 100.757 133.712 100.877 135.719 101.855C137.427 102.688 139.305 104.357 141.423 103.451C143.124 102.724 143.091 101.172 142.109 100.013Z" fill="#D6EAF2"/>
</g>
</g>
</g>
</g>
</g>
</g>
</g>
</g>
</g>
</g>
</g>
</g>
</g>
<defs>
<filter id="filter0_d" x="65" y="91.0001" width="133.932" height="45.8202" filterUnits="userSpaceOnUse" color-interpolation-filters="sRGB">
<feFlood flood-opacity="0" result="BackgroundImageFix"/>
<feColorMatrix in="SourceAlpha" type="matrix" values="0 0 0 0 0 0 0 0 0 0 0 0 0 0 0 0 0 0 127 0"/>
<feOffset dy="2"/>
<feGaussianBlur stdDeviation="2"/>
<feColorMatrix type="matrix" values="0 0 0 0 0 0 0 0 0 0 0 0 0 0 0 0 0 0 0.2 0"/>
<feBlend mode="normal" in2="BackgroundImageFix" result="effect1_dropShadow"/>
<feBlend mode="normal" in="SourceGraphic" in2="effect1_dropShadow" result="shape"/>
</filter>
</defs>
</svg>
