<svg width="264" height="280" viewBox="0 0 264 280" fill="none" xmlns="http://www.w3.org/2000/svg">
<g id="natan 1">
<mask id="mask0" mask-type="alpha" maskUnits="userSpaceOnUse" x="12" y="40" width="240" height="240">
<g id="mask0">
<path id="Vector" d="M132 280C198.274 280 252 226.274 252 160C252 93.7258 198.274 40 132 40C65.7258 40 12 93.7258 12 160C12 226.274 65.7258 280 132 280Z" fill="white"/>
</g>
</mask>
<g mask="url(#mask0)">
<g id="Group">
<path id="Vector_2" d="M132 280C198.274 280 252 226.274 252 160C252 93.7258 198.274 40 132 40C65.7258 40 12 93.7258 12 160C12 226.274 65.7258 280 132 280Z" fill="#E6E6E6"/>
<path id="Vector_3" d="M252 40H12V280H252V40Z" fill="#F9A933"/>
</g>
</g>
<mask id="mask1" mask-type="alpha" maskUnits="userSpaceOnUse" x="0" y="0" width="264" height="280">
<g id="mask1">
<path id="Vector_4" d="M12 160C12 226.274 65.7258 280 132 280C198.274 280 252 226.274 252 160H264V0H0V160H12Z" fill="white"/>
</g>
</mask>
<g mask="url(#mask1)">
<g id="Group_2">
<mask id="mask2" mask-type="alpha" maskUnits="userSpaceOnUse" x="32" y="36" width="200" height="244">
<g id="mask2">
<path id="Vector_5" d="M156 180.611V199H160C199.765 199 232 231.235 232 271V280H32V271C32 231.235 64.2355 199 104 199H108V180.611C90.7626 172.422 78.3722 155.687 76.3051 135.881C70.4803 135.058 66 130.052 66 124V110C66 104.054 70.3246 99.1181 76 98.1659V92C76 61.0721 101.072 36 132 36C162.928 36 188 61.0721 188 92V98.1659C193.675 99.1181 198 104.054 198 110V124C198 130.052 193.52 135.058 187.695 135.881C185.628 155.687 173.237 172.422 156 180.611Z" fill="white"/>
</g>
</mask>
<g mask="url(#mask2)">
<g id="Group_3">
<path id="Vector_6" d="M156 180.611V199H160C199.765 199 232 231.235 232 271V280H32V271C32 231.235 64.2355 199 104 199H108V180.611C90.7626 172.422 78.3722 155.687 76.3051 135.881C70.4803 135.058 66 130.052 66 124V110C66 104.054 70.3246 99.1181 76 98.1659V92C76 61.0721 101.072 36 132 36C162.928 36 188 61.0721 188 92V98.1659C193.675 99.1181 198 104.054 198 110V124C198 130.052 193.52 135.058 187.695 135.881C185.628 155.687 173.237 172.422 156 180.611Z" fill="#D0C6AC"/>
<path id="Vector_7" d="M264 36H0V280H264V36Z" fill="#D08B5B"/>
<path id="Vector_8" fill-rule="evenodd" clip-rule="evenodd" d="M188 115V138C188 168.928 162.928 194 132 194C101.072 194 76 168.928 76 138V115V130C76 160.928 101.072 186 132 186C162.928 186 188 160.928 188 130V115Z" fill="black" fill-opacity="0.1"/>
</g>
</g>
<mask id="mask3" mask-type="alpha" maskUnits="userSpaceOnUse" x="32" y="199" width="200" height="81">
<g id="mask3">
<path id="Vector_9" fill-rule="evenodd" clip-rule="evenodd" d="M105.192 199.052H104C64.2355 199.052 32 231.287 32 271.052V280H232V271.052C232 231.287 199.765 199.052 160 199.052H158.808C158.935 200.035 159 201.036 159 202.052C159 215.859 146.912 227.052 132 227.052C117.088 227.052 105 215.859 105 202.052C105 201.036 105.065 200.035 105.192 199.052Z" fill="white"/>
</g>
</mask>
<g mask="url(#mask3)">
<g id="Group_4">
<path id="Vector_10" fill-rule="evenodd" clip-rule="evenodd" d="M105.192 199.052H104C64.2355 199.052 32 231.287 32 271.052V280H232V271.052C232 231.287 199.765 199.052 160 199.052H158.808C158.935 200.035 159 201.036 159 202.052C159 215.859 146.912 227.052 132 227.052C117.088 227.052 105 215.859 105 202.052C105 201.036 105.065 200.035 105.192 199.052Z" fill="#E6E6E6"/>
<path id="Vector_11" d="M264 170H0V280H264V170Z" fill="#262E33"/>
<path id="Vector_12" fill-rule="evenodd" clip-rule="evenodd" d="M156 192.279C162.182 196.835 166 203.106 166 210.028C166 217.233 161.863 223.733 155.229 228.327L149.579 223.876L145 224.208L146 221.057L145.922 220.996C152.022 217.853 156 212.7 156 206.877V192.279ZM108 191.572C101.233 196.174 97 202.74 97 210.028C97 217.426 101.362 224.08 108.308 228.692L114.421 223.876L119 224.208L118 221.057L118.078 220.996C111.978 217.853 108 212.7 108 206.877V191.572Z" fill="#F2F2F2"/>
</g>
</g>
<mask id="mask4" mask-type="alpha" maskUnits="userSpaceOnUse" x="0" y="0" width="264" height="280">
<g id="mask4">
<path id="Vector_13" d="M264 0H0V280H264V0Z" fill="white"/>
</g>
</mask>
<g mask="url(#mask4)">
<g id="Group_5">
<mask id="mask5" mask-type="alpha" maskUnits="userSpaceOnUse" x="75" y="98" width="114" height="89">
<g id="mask5">
<path id="Vector_14" fill-rule="evenodd" clip-rule="evenodd" d="M149.428 170.169C146.915 172.463 144.237 173.494 140.853 172.773C140.271 172.649 137.896 168.235 132 168.235C126.103 168.235 123.729 172.649 123.147 172.773C119.762 173.494 117.085 172.463 114.571 170.169C109.846 165.856 105.917 159.908 108.278 153.419C109.508 150.037 111.51 146.324 115.151 145.246C119.038 144.096 124.497 145.244 128.415 144.458C129.684 144.204 131.071 143.751 132 143C132.929 143.751 134.316 144.204 135.585 144.458C139.503 145.244 144.961 144.096 148.849 145.246C152.49 146.324 154.491 150.037 155.722 153.419C158.083 159.908 154.154 165.856 149.428 170.169ZM188.081 98C184.671 106.4 185.988 116.858 185.357 125.676C184.844 132.843 183.337 143.586 176.973 148.215C173.718 150.582 167.794 154.56 163.542 153.45C160.615 152.686 160.302 144.29 156.455 141.147C152.092 137.582 146.643 136.016 141.149 136.258C138.779 136.362 133.984 136.337 132 138.16C130.016 136.337 125.222 136.362 122.851 136.258C117.357 136.016 111.908 137.582 107.545 141.147C103.698 144.29 103.386 152.686 100.458 153.45C96.2058 154.56 90.2818 150.582 87.027 148.215C80.6624 143.586 79.1562 132.843 78.6429 125.676C78.0121 116.858 79.3292 106.4 75.9188 98C74.2598 98 75.354 114.129 75.354 114.129V134.485C75.3857 149.773 84.9351 172.655 106.108 181.393C111.286 183.53 123.015 187 132 187C140.985 187 152.714 183.86 157.892 181.723C179.065 172.986 188.614 149.773 188.646 134.485V114.129C188.646 114.129 189.74 98 188.081 98Z" fill="white"/>
</g>
</mask>
<g mask="url(#mask5)">
<g id="Group_6">
<path id="Vector_15" fill-rule="evenodd" clip-rule="evenodd" d="M149.428 170.169C146.915 172.463 144.237 173.494 140.853 172.773C140.271 172.649 137.896 168.235 132 168.235C126.103 168.235 123.729 172.649 123.147 172.773C119.762 173.494 117.085 172.463 114.571 170.169C109.846 165.856 105.917 159.908 108.278 153.419C109.508 150.037 111.51 146.324 115.151 145.246C119.038 144.096 124.497 145.244 128.415 144.458C129.684 144.204 131.071 143.751 132 143C132.929 143.751 134.316 144.204 135.585 144.458C139.503 145.244 144.961 144.096 148.849 145.246C152.49 146.324 154.491 150.037 155.722 153.419C158.083 159.908 154.154 165.856 149.428 170.169ZM188.081 98C184.671 106.4 185.988 116.858 185.357 125.676C184.844 132.843 183.337 143.586 176.973 148.215C173.718 150.582 167.794 154.56 163.542 153.45C160.615 152.686 160.302 144.29 156.455 141.147C152.092 137.582 146.643 136.016 141.149 136.258C138.779 136.362 133.984 136.337 132 138.16C130.016 136.337 125.222 136.362 122.851 136.258C117.357 136.016 111.908 137.582 107.545 141.147C103.698 144.29 103.386 152.686 100.458 153.45C96.2058 154.56 90.2818 150.582 87.027 148.215C80.6624 143.586 79.1562 132.843 78.6429 125.676C78.0121 116.858 79.3292 106.4 75.9188 98C74.2598 98 75.354 114.129 75.354 114.129V134.485C75.3857 149.773 84.9351 172.655 106.108 181.393C111.286 183.53 123.015 187 132 187C140.985 187 152.714 183.86 157.892 181.723C179.065 172.986 188.614 149.773 188.646 134.485V114.129C188.646 114.129 189.74 98 188.081 98Z" fill="#331B0C"/>
<path id="Vector_16" d="M280 72H16V316H280V72Z" fill="#151110"/>
</g>
</g>
<mask id="mask6" mask-type="alpha" maskUnits="userSpaceOnUse" x="73" y="17" width="118" height="82">
<g id="mask6">
<path id="Vector_17" fill-rule="evenodd" clip-rule="evenodd" d="M179.15 39.9204C176.39 37.1004 173.186 34.7068 170.069 32.3065C169.382 31.7774 168.683 31.2611 168.011 30.7118C167.858 30.587 166.292 29.4657 166.105 29.0531C165.654 28.0603 165.915 28.8333 165.977 27.6486C166.056 26.1505 169.111 21.9193 166.831 20.949C165.828 20.5222 164.04 21.658 163.078 22.0331C161.196 22.7672 159.292 23.3932 157.347 23.9331C158.279 22.0763 160.055 18.3595 156.716 19.3543C154.114 20.1293 151.69 22.122 149.076 23.0594C149.941 21.6415 153.4 17.2479 150.274 17.0023C149.302 16.9258 146.471 18.7504 145.424 19.1396C142.287 20.3055 139.083 21.0591 135.79 21.6526C124.592 23.6707 111.497 23.0953 101.137 28.1935C93.1495 32.1237 85.2625 38.222 80.6484 45.9875C76.2012 53.4726 74.5378 61.6642 73.607 70.2413C72.924 76.5359 72.8684 83.0426 73.1879 89.36C73.2922 91.4298 73.525 100.971 76.532 98.0814C78.0301 96.6417 78.0191 90.8282 78.3963 88.8604C79.1473 84.9453 79.8701 81.0127 81.122 77.2227C83.3282 70.5439 85.9308 63.4297 91.4269 58.8297C94.954 55.8782 97.4308 51.8889 100.806 48.9112C102.322 47.5739 101.165 47.7131 103.603 47.8886C105.241 48.0063 106.885 48.0513 108.526 48.0942C112.322 48.1929 116.124 48.1677 119.921 48.1811C127.568 48.2087 135.179 48.3167 142.819 47.9164C146.214 47.7386 149.618 47.6423 153.004 47.3283C154.895 47.1528 158.251 45.9406 159.808 46.8669C161.233 47.7144 162.713 50.4818 163.736 51.6151C166.154 54.2936 169.036 56.3392 171.862 58.5355C177.757 63.1149 180.732 68.8667 182.523 76.0232C184.306 83.1533 183.806 89.7681 186.013 96.7848C186.402 98.0185 187.429 100.145 188.695 98.2389C188.93 97.8849 188.87 95.939 188.87 94.8193C188.87 90.2996 190.014 86.9084 190 82.3591C189.944 68.5272 189.496 50.4908 179.15 39.9204Z" fill="white"/>
</g>
</mask>
<g mask="url(#mask6)">
<g id="Group_7">
<path id="Vector_18" fill-rule="evenodd" clip-rule="evenodd" d="M179.15 39.9204C176.39 37.1004 173.186 34.7068 170.069 32.3065C169.382 31.7774 168.683 31.2611 168.011 30.7118C167.858 30.587 166.292 29.4657 166.105 29.0531C165.654 28.0603 165.915 28.8333 165.977 27.6486C166.056 26.1505 169.111 21.9193 166.831 20.949C165.828 20.5222 164.04 21.658 163.078 22.0331C161.196 22.7672 159.292 23.3932 157.347 23.9331C158.279 22.0763 160.055 18.3595 156.716 19.3543C154.114 20.1293 151.69 22.122 149.076 23.0594C149.941 21.6415 153.4 17.2479 150.274 17.0023C149.302 16.9258 146.471 18.7504 145.424 19.1396C142.287 20.3055 139.083 21.0591 135.79 21.6526C124.592 23.6707 111.497 23.0953 101.137 28.1935C93.1495 32.1237 85.2625 38.222 80.6484 45.9875C76.2012 53.4726 74.5378 61.6642 73.607 70.2413C72.924 76.5359 72.8684 83.0426 73.1879 89.36C73.2922 91.4298 73.525 100.971 76.532 98.0814C78.0301 96.6417 78.0191 90.8282 78.3963 88.8604C79.1473 84.9453 79.8701 81.0127 81.122 77.2227C83.3282 70.5439 85.9308 63.4297 91.4269 58.8297C94.954 55.8782 97.4308 51.8889 100.806 48.9112C102.322 47.5739 101.165 47.7131 103.603 47.8886C105.241 48.0063 106.885 48.0513 108.526 48.0942C112.322 48.1929 116.124 48.1677 119.921 48.1811C127.568 48.2087 135.179 48.3167 142.819 47.9164C146.214 47.7386 149.618 47.6423 153.004 47.3283C154.895 47.1528 158.251 45.9406 159.808 46.8669C161.233 47.7144 162.713 50.4818 163.736 51.6151C166.154 54.2936 169.036 56.3392 171.862 58.5355C177.757 63.1149 180.732 68.8667 182.523 76.0232C184.306 83.1533 183.806 89.7681 186.013 96.7848C186.402 98.0185 187.429 100.145 188.695 98.2389C188.93 97.8849 188.87 95.939 188.87 94.8193C188.87 90.2996 190.014 86.9084 190 82.3591C189.944 68.5272 189.496 50.4908 179.15 39.9204Z" fill="#1F3140"/>
<path id="Vector_19" d="M263 0H-1V280H263V0Z" fill="#151110"/>
</g>
</g>
</g>
</g>
</g>
<g id="Face">
<g id="boca_2">
<path id="Mouth" fill-rule="evenodd" clip-rule="evenodd" d="M118 148.922C118 156.654 124.268 162.922 132 162.922C139.732 162.922 146 156.654 146 148.922" fill="black" fill-opacity="0.7"/>
</g>
<g id="boca_1">
<path id="Why so serious?" d="M141 150H123C121.343 150 120 151.343 120 153C120 154.657 121.343 156 123 156H141C142.657 156 144 154.657 144 153C144 151.343 142.657 150 141 150Z" fill="black" fill-opacity="0.7"/>
</g>
<g id="Nose/Default">
<path id="Nose" fill-rule="evenodd" clip-rule="evenodd" d="M120 129.922C120 134.34 125.373 137.922 132 137.922C138.628 137.922 144 134.34 144 129.922" fill="black" fill-opacity="0.16"/>
</g>
<g id="Eyes/Default &#240;&#159;&#152;&#128;">
<path id="Eye" d="M106 117.922C109.314 117.922 112 115.235 112 111.922C112 108.608 109.314 105.922 106 105.922C102.686 105.922 100 108.608 100 111.922C100 115.235 102.686 117.922 106 117.922Z" fill="black" fill-opacity="0.6"/>
<path id="Eye_2" d="M158 117.922C161.314 117.922 164 115.235 164 111.922C164 108.608 161.314 105.922 158 105.922C154.686 105.922 152 108.608 152 111.922C152 115.235 154.686 117.922 158 117.922Z" fill="black" fill-opacity="0.6"/>
</g>
<g id="Eyebrow/Outline/Default">
<g id="I Browse">
<path id="Eyebrow" d="M91.6304 99.0803C95.5453 93.5716 106.278 90.4826 115.523 92.7529C116.596 93.0164 117.679 92.3603 117.942 91.2876C118.206 90.2149 117.55 89.1318 116.477 88.8684C105.741 86.2317 93.3123 89.8088 88.3699 96.7632C87.73 97.6635 87.9412 98.9121 88.8416 99.552C89.7419 100.192 90.9905 99.9807 91.6304 99.0803Z" fill="black" fill-opacity="0.6"/>
<path id="Eyebrow_2" d="M172.37 99.0803C168.455 93.5716 157.723 90.4826 148.477 92.7529C147.405 93.0164 146.322 92.3603 146.058 91.2876C145.795 90.2149 146.451 89.1318 147.523 88.8684C158.26 86.2317 170.688 89.8088 175.631 96.7632C176.271 97.6635 176.059 98.9121 175.159 99.552C174.259 100.192 173.01 99.9807 172.37 99.0803Z" fill="black" fill-opacity="0.6"/>
</g>
</g>
</g>
</g>
</g>
</svg>
