<svg width="558" height="424" viewBox="0 0 558 424" fill="none" xmlns="http://www.w3.org/2000/svg">
<path d="M57.1181 93.9003C34.9576 78.7045 9.55098 68.6782 0.118054 22.9004C-9.31487 -22.8775 549.685 14.1226 549.685 14.1226C549.685 14.1226 557.5 323 557.5 396C557.5 475.131 416.577 356.615 324.118 342.9C254 332.5 224.681 308.259 190 256.5C167.589 223.053 172.5 180 156.5 159C140.5 138 92.1181 117.9 57.1181 93.9003Z" fill="#FCFCFC"/>
<path d="M435.775 120.96C436.541 123.981 435.958 127.229 434.662 130.063C433.365 132.896 431.396 135.365 429.312 137.68C428.263 138.844 427.129 140.082 426.906 141.634C426.609 143.703 428.003 145.576 428.938 147.445C429.757 149.082 430.253 150.861 430.4 152.685C430.526 154.252 430.331 155.979 429.235 157.104C428.179 158.189 426.556 158.451 425.05 158.592C420.901 158.977 416.721 158.876 412.595 158.29C413.751 156.75 413.317 155.795 413.208 153.871C412.995 150.097 410.253 146.68 409.72 142.938C409.297 139.963 411.263 137.232 413.122 134.873L421.644 124.055C423.056 122.262 424.462 120.416 425.476 118.361C426.201 116.892 426.337 114.135 428.16 113.646C431.595 112.723 435.107 118.326 435.775 120.96Z" fill="#47465A"/>
<path d="M393.955 129.877C393.955 129.877 388.076 147.247 385.137 148.424C382.197 149.602 402.773 170.799 402.773 170.799L417.764 163.439L418.352 149.308L412.473 149.013C412.473 149.013 411.591 143.125 414.531 140.181C417.47 137.237 393.955 129.877 393.955 129.877Z" fill="#FBBEBE"/>
<path opacity="0.1" d="M393.955 129.877C393.955 129.877 388.076 147.247 385.137 148.424C382.197 149.602 402.773 170.799 402.773 170.799L417.764 163.439L418.352 149.308L412.473 149.013C412.473 149.013 411.591 143.125 414.531 140.181C417.47 137.237 393.955 129.877 393.955 129.877Z" fill="black"/>
<path d="M400.715 159.317C400.715 159.317 388.076 150.78 387.488 143.714C387.488 143.714 378.082 149.896 375.143 149.602C372.203 149.308 364.267 151.074 364.267 152.252C364.267 153.429 371.615 186.697 371.615 186.697C371.615 186.697 366.324 200.829 368.97 205.245C371.615 209.661 373.085 230.27 373.085 230.27H434.225C434.225 230.27 425.995 215.844 430.404 205.539C434.813 195.235 436.576 151.957 436.576 151.957C436.576 151.957 433.343 149.602 430.11 150.191C426.876 150.78 423.055 148.424 420.704 148.13C418.352 147.836 413.023 149.041 413.023 149.041L400.715 159.317Z" fill="#FFE1B0"/>
<path d="M515.941 229.954V242.908C515.941 245.188 515.045 247.376 513.445 248.998C511.845 250.619 509.672 251.545 507.396 251.573L235.259 254.938C234.601 254.946 233.949 254.823 233.339 254.577C232.729 254.331 232.174 253.965 231.706 253.502C231.238 253.039 230.866 252.488 230.613 251.88C230.359 251.272 230.229 250.62 230.229 249.961V235.642C230.229 234.36 230.727 233.128 231.618 232.208C232.509 231.288 233.723 230.751 235.002 230.711L508.029 222.271C509.057 222.239 510.08 222.414 511.038 222.786C511.997 223.158 512.871 223.719 513.609 224.435C514.345 225.152 514.933 226.01 515.333 226.958C515.736 227.906 515.941 228.925 515.941 229.954Z" fill="#47465A"/>
<path opacity="0.1" d="M515.941 239.396V242.908C515.941 245.188 515.045 247.376 513.445 248.998C511.845 250.619 509.672 251.545 507.396 251.573L235.259 254.938C234.601 254.946 233.949 254.823 233.339 254.577C232.729 254.33 232.174 253.965 231.706 253.502C231.238 253.039 230.866 252.488 230.613 251.88C230.359 251.272 230.229 250.62 230.229 249.961V249.5L515.941 239.396Z" fill="black"/>
<path d="M462.443 230.27L428.011 225.795L366.784 228.032L388.958 234.98L462.443 230.27Z" fill="#F2F2F2"/>
<path d="M371.027 228.209V231.742L337.518 239.396L334.243 238.64L333.697 238.513L309.593 225.559L371.027 228.209Z" fill="#C5C5C8"/>
<path opacity="0.1" d="M371.027 228.209V231.742L337.518 239.396L334.243 238.64L333.697 234.98L371.027 228.209Z" fill="black"/>
<path d="M332.521 233.803C333.109 233.508 345.454 231.153 345.454 231.153L323.115 229.092L332.521 233.803Z" fill="#47465A"/>
<path d="M409.828 144.891C420.38 144.891 428.934 136.324 428.934 125.755C428.934 115.186 420.38 106.618 409.828 106.618C399.275 106.618 390.721 115.186 390.721 125.755C390.721 136.324 399.275 144.891 409.828 144.891Z" fill="#FBBEBE"/>
<path d="M354.273 212.311C354.273 212.311 337.224 219.671 333.109 217.61C328.994 215.549 316.648 210.25 312.827 221.143C309.745 229.928 327.734 230.479 334.814 230.364C335.67 230.35 336.513 230.15 337.284 229.778C338.055 229.406 338.737 228.87 339.282 228.209L363.826 219.818C363.826 219.818 358.388 210.544 354.273 212.311Z" fill="#FBBEBE"/>
<path d="M402.479 198.768L404.537 200.535L385.43 227.62C385.43 227.62 382.491 227.914 383.373 226.442L402.479 198.768Z" fill="#47465A"/>
<path d="M403.655 200.535L405.713 197.885L404.831 197.296L402.773 199.651L403.655 200.535Z" fill="#47465A"/>
<path d="M368.823 150.338C368.823 150.338 358.829 152.104 359.123 159.759C359.417 167.414 356.918 176.099 354.567 180.22C352.215 184.342 353.979 187.581 354.567 193.174C355.154 198.768 351.627 204.656 353.391 207.6C355.154 210.544 334.285 212.605 334.285 215.549C334.285 218.493 347.512 224.087 345.16 227.914C343.468 230.668 355.393 226.031 362.218 223.212C363.995 222.494 365.573 221.358 366.818 219.899C368.063 218.44 368.938 216.702 369.369 214.832C369.576 213.893 369.631 213.047 369.411 212.458C368.529 210.103 378.964 207.012 379.258 201.123C379.552 195.235 377.788 189.347 376.318 183.459C374.849 177.571 368.823 150.338 368.823 150.338Z" fill="#FFE1B0"/>
<path d="M223.168 181.151L309.363 181.968C309.959 181.974 310.541 182.149 311.041 182.474C311.54 182.799 311.937 183.261 312.185 183.804L335.414 234.78C335.636 235.267 335.73 235.802 335.687 236.335C335.644 236.868 335.466 237.382 335.17 237.827C334.873 238.271 334.468 238.633 333.993 238.877C333.518 239.121 332.988 239.239 332.455 239.221L245.957 236.224C245.381 236.204 244.821 236.026 244.34 235.708C243.859 235.39 243.475 234.946 243.229 234.424L220.302 185.627C220.076 185.146 219.976 184.616 220.011 184.085C220.045 183.555 220.213 183.043 220.5 182.595C220.786 182.148 221.181 181.781 221.648 181.528C222.114 181.276 222.637 181.146 223.168 181.151Z" fill="#AAA9B1"/>
<path d="M426.582 212.311C426.582 212.311 409.534 219.671 405.419 217.61C401.303 215.549 388.958 210.25 385.137 221.143C382.055 229.928 400.044 230.479 407.124 230.364C407.98 230.35 408.822 230.15 409.594 229.778C410.365 229.406 411.047 228.87 411.591 228.209L436.576 225.559C436.576 225.559 430.698 210.544 426.582 212.311Z" fill="#FBBEBE"/>
<path opacity="0.1" d="M436.723 156.521C436.723 156.521 440.986 150.78 443.043 156.079C445.101 161.378 444.807 181.987 444.807 181.987C444.807 181.987 448.334 192.291 447.158 199.062C445.983 205.834 448.334 206.717 448.334 206.717C448.334 206.717 448.922 209.661 447.158 211.133C445.395 212.605 444.219 219.082 444.807 219.965C445.395 220.849 443.925 226.442 442.749 226.442C441.573 226.442 439.075 226.001 439.075 226.001C439.075 226.001 433.049 214.961 420.41 214.077C420.41 214.077 422.467 211.133 421.291 205.245C420.116 199.357 436.723 156.521 436.723 156.521Z" fill="black"/>
<path d="M435.989 152.252C435.989 152.252 440.839 150.338 442.896 155.637C444.954 160.937 446.864 181.987 446.864 181.987C446.864 181.987 450.392 192.291 449.216 199.063C448.04 205.834 450.392 206.717 450.392 206.717C450.392 206.717 450.98 209.661 449.216 211.133C447.452 212.605 446.277 219.082 446.864 219.965C447.452 220.849 445.983 226.442 444.807 226.442C443.631 226.442 432.755 228.209 432.755 228.209C432.755 228.209 435.107 214.961 422.467 214.077C422.467 214.077 424.525 211.133 423.349 205.245C422.173 199.357 435.989 152.252 435.989 152.252Z" fill="#FFE1B0"/>
<path d="M416.228 98.7495C413.297 96.9133 409.98 95.7841 406.539 95.4511C403.098 95.118 399.626 95.5903 396.398 96.8306C392.938 98.1938 389.881 100.413 387.022 102.795C384.729 104.706 383.065 107.866 381.656 110.5C379.52 114.493 378.954 118.17 379.012 122.7C379.062 126.643 379.113 130.599 379.65 134.506C380.386 139.865 382.035 145.171 381.656 150.567C381.277 155.963 378.111 161.72 372.818 162.796C377.742 163.169 382.691 163.027 387.585 162.37C390.67 161.956 393.908 161.249 396.163 159.101C397.81 157.532 398.741 155.369 399.551 153.242C400.365 151.104 401.111 148.883 401.082 146.595C401.022 141.834 397.722 137.841 395.568 133.597C394.964 132.406 394.433 131.126 394.454 129.789C394.475 128.453 395.171 127.051 396.411 126.557C397.941 125.948 399.713 126.857 401.303 126.431C403.858 125.747 404.522 122.193 406.868 120.97C408.604 120.065 410.819 120.743 412.279 122.049C412.932 122.633 413.491 123.339 414.248 123.779C415.274 124.375 416.521 124.404 417.708 124.417C419.923 124.442 427.484 120.963 429.081 119.425C430.638 127.449 442.22 120.466 435.573 108.628C433.259 104.507 430.189 100.679 426.106 98.3048C422.023 95.931 416.814 95.1947 412.527 97.1766" fill="#47465A"/>
<path d="M396.453 135.029C397.914 135.029 399.099 132.92 399.099 130.318C399.099 127.717 397.914 125.608 396.453 125.608C394.992 125.608 393.808 127.717 393.808 130.318C393.808 132.92 394.992 135.029 396.453 135.029Z" fill="#FBBEBE"/>
<path d="M422.467 148.577C422.467 148.577 438.781 150.927 439.663 152.104C440.545 153.282 438.781 160.348 438.781 160.348L427.023 162.409L417.976 160.454L422.467 148.577Z" fill="#FFE1B0"/>
<path opacity="0.1" d="M372.462 160.106C370.005 159.681 367.609 161.909 366.337 164.845C365.064 167.781 364.719 171.3 364.594 174.718C364.469 178.116 364.543 181.585 365.315 184.815C366.902 191.448 371.16 196.137 373.624 202.236C375.517 207.075 376.282 212.283 375.862 217.463" fill="black"/>
<path d="M374.225 160.106C371.769 159.681 369.372 161.909 368.1 164.845C366.828 167.781 366.482 171.3 366.357 174.718C366.233 178.116 366.307 181.585 367.079 184.815C368.665 191.448 372.924 196.137 375.388 202.236C377.281 207.075 378.046 212.283 377.626 217.463" fill="#FFE1B0"/>
<path d="M468.704 225.889L497.14 237.281L514.912 234.077L513.362 221.335L513.135 219.481L483.278 210.224L481.145 212.36L468.704 225.889Z" fill="#27262B"/>
<path opacity="0.1" d="M485.055 212.492V224.821L514.912 234.077L513.362 221.335L485.055 212.492Z" fill="black"/>
<path d="M457.57 228.551L459.582 229.297L483.581 238.199L485.446 238.891C485.505 238.913 485.568 238.921 485.63 238.914C485.693 238.906 485.752 238.884 485.804 238.849L488.002 237.373L510.864 222.01L513.024 220.56C513.086 220.518 513.136 220.459 513.166 220.39C513.196 220.321 513.207 220.245 513.195 220.171C513.185 220.097 513.153 220.027 513.104 219.97C513.055 219.913 512.991 219.871 512.919 219.849L509.475 218.793L485.265 211.365L483.152 210.715C483.095 210.697 483.035 210.693 482.976 210.702C482.918 210.71 482.862 210.732 482.813 210.766L481.148 211.89L459.578 226.438L457.488 227.849C457.427 227.889 457.379 227.946 457.348 228.013C457.318 228.079 457.306 228.152 457.315 228.225C457.323 228.298 457.351 228.366 457.396 228.424C457.441 228.482 457.501 228.525 457.57 228.551Z" fill="#AAA9B1"/>
<path d="M507.087 221.885L485.665 236.477C485.561 236.547 485.443 236.592 485.318 236.608C485.194 236.623 485.068 236.609 484.951 236.566L462.208 228.25C462.07 228.199 461.948 228.111 461.858 227.995C461.766 227.878 461.709 227.739 461.693 227.592C461.676 227.446 461.7 227.297 461.763 227.164C461.826 227.03 461.924 226.916 462.047 226.835L482.782 213.283C482.879 213.22 482.989 213.178 483.104 213.162C483.219 213.146 483.336 213.156 483.447 213.19L506.877 220.466C507.019 220.511 507.146 220.595 507.243 220.709C507.34 220.822 507.404 220.961 507.426 221.109C507.447 221.257 507.427 221.409 507.367 221.546C507.308 221.683 507.21 221.8 507.087 221.885Z" fill="#454545"/>
<path d="M509.475 218.793V222.01H510.864L513.024 220.56C513.086 220.518 513.136 220.459 513.166 220.39C513.196 220.321 513.207 220.245 513.196 220.171C513.185 220.097 513.153 220.027 513.104 219.97C513.055 219.913 512.991 219.871 512.919 219.849L509.475 218.793Z" fill="#767676"/>
<path d="M483.581 237.192V238.199L485.446 238.891C485.505 238.913 485.568 238.921 485.63 238.914C485.693 238.906 485.752 238.884 485.804 238.849L488.002 237.373V237.192H483.581Z" fill="#767676"/>
<path d="M457.57 228.551L459.582 229.297V226.438H459.578L457.488 227.849C457.427 227.889 457.379 227.946 457.348 228.013C457.318 228.079 457.306 228.152 457.315 228.225C457.323 228.297 457.351 228.366 457.396 228.424C457.441 228.481 457.501 228.525 457.57 228.551Z" fill="#767676"/>
<path d="M481.148 211.89H485.265V211.365L483.152 210.715C483.095 210.697 483.035 210.693 482.976 210.702C482.918 210.71 482.862 210.732 482.813 210.766L481.148 211.89Z" fill="#767676"/>
<path d="M472.143 219.082C472.306 219.082 472.437 218.95 472.437 218.788C472.437 218.625 472.306 218.493 472.143 218.493C471.981 218.493 471.85 218.625 471.85 218.788C471.85 218.95 471.981 219.082 472.143 219.082Z" fill="#F2F2F2"/>
<path d="M347.18 83.6546H230.191V143.125H347.18V83.6546Z" fill="#F2F2F2"/>
<path d="M347.277 83.6546H230.288V143.125H347.277V83.6546Z" stroke="#3F3D56" stroke-miterlimit="10"/>
<g opacity="0.1">
<path opacity="0.1" d="M286.25 124.665C286.254 124.74 286.262 124.813 286.273 124.884C287.132 124.638 287.976 124.373 288.804 124.089C289.246 124.047 289.657 123.902 289.974 123.677C290.216 123.59 290.457 123.498 290.696 123.407C290.642 123.325 290.581 123.245 290.512 123.168C290.047 122.639 289.34 122.309 288.561 122.327C287.782 122.345 287.108 122.709 286.691 123.257C286.372 123.689 286.219 124.175 286.25 124.665Z" fill="#3F3D56"/>
<path opacity="0.1" d="M286.123 121.884C286.139 122.371 286.335 122.846 286.691 123.261C287.158 123.789 287.865 124.119 288.644 124.101C288.698 124.101 288.754 124.095 288.804 124.092C289.246 124.05 289.657 123.905 289.974 123.68C290.19 123.533 290.371 123.361 290.512 123.173C290.824 122.74 290.976 122.257 290.954 121.77C290.932 121.282 290.737 120.807 290.386 120.39C289.92 119.861 289.213 119.53 288.434 119.548C287.655 119.566 286.982 119.93 286.566 120.478C286.246 120.91 286.093 121.395 286.123 121.884Z" fill="#3F3D56"/>
<path opacity="0.1" d="M288.517 121.32C289.85 121.289 290.885 120.244 290.828 118.988C290.77 117.731 289.643 116.738 288.309 116.769C286.975 116.801 285.94 117.845 285.997 119.102C286.055 120.358 287.183 121.352 288.517 121.32Z" fill="#3F3D56"/>
<path opacity="0.1" d="M288.39 118.54C289.724 118.508 290.758 117.464 290.701 116.207C290.644 114.95 289.516 113.957 288.182 113.989C286.848 114.02 285.813 115.064 285.871 116.321C285.928 117.578 287.056 118.571 288.39 118.54Z" fill="#3F3D56"/>
<path opacity="0.1" d="M288.263 115.758C289.597 115.727 290.632 114.683 290.574 113.426C290.517 112.169 289.39 111.176 288.056 111.207C286.722 111.239 285.687 112.283 285.744 113.54C285.801 114.797 286.929 115.79 288.263 115.758Z" fill="#3F3D56"/>
<path opacity="0.1" d="M296.336 94.24C296.653 93.9299 296.938 93.6044 297.192 93.2658L290.812 92.6661L297.675 92.5405C298.287 91.4942 298.595 90.3692 298.581 89.2343C298.568 88.0993 298.232 86.9783 297.596 85.9399L288.546 89.5941L296.832 84.902C295.989 83.936 294.878 83.105 293.57 82.4606C292.262 81.8162 290.784 81.3721 289.227 81.1559C287.67 80.9397 286.069 80.9559 284.521 81.2036C282.974 81.4513 281.513 81.9251 280.231 82.5958C278.948 83.2664 277.871 84.1196 277.065 85.1023C276.26 86.0851 275.743 87.1764 275.548 88.3088C275.352 89.4411 275.482 90.5902 275.93 91.6849C276.377 92.7796 277.132 93.7965 278.147 94.6726C277.655 95.1553 277.236 95.6746 276.898 96.2217L285.274 99.1069L276.395 97.1935C275.838 98.5201 275.75 99.9256 276.138 101.283C276.526 102.64 277.378 103.907 278.617 104.967C277.331 106.227 276.565 107.722 276.404 109.281C276.243 110.84 276.695 112.4 277.708 113.783C278.721 115.165 280.254 116.315 282.132 117.1C284.01 117.885 286.157 118.274 288.328 118.222C290.499 118.17 292.605 117.68 294.407 116.807C296.209 115.934 297.633 114.714 298.516 113.286C299.4 111.859 299.708 110.281 299.404 108.733C299.1 107.185 298.198 105.73 296.799 104.534C298.336 103.029 299.126 101.196 299.042 99.3292C298.958 97.4625 298.006 95.6701 296.336 94.24Z" fill="#FFE1B0"/>
<path opacity="0.1" d="M275.906 99.8752C275.987 101.743 276.942 103.537 278.617 104.965C277.331 106.225 276.564 107.719 276.403 109.278C276.241 110.837 276.693 112.397 277.706 113.78C278.719 115.163 280.251 116.313 282.129 117.098C284.007 117.883 286.154 118.273 288.325 118.221C290.495 118.17 292.602 117.68 294.404 116.807C296.206 115.934 297.63 114.714 298.514 113.287C299.399 111.859 299.706 110.281 299.403 108.733C299.1 107.185 298.198 105.73 296.799 104.534C298.285 103.082 275.864 98.9407 275.906 99.8752Z" fill="black"/>
</g>
<g opacity="0.1">
<path opacity="0.1" d="M260.911 139.314C260.911 139.367 260.904 139.419 260.895 139.473C260.284 139.298 259.683 139.111 259.093 138.911C258.779 138.881 258.486 138.779 258.26 138.619C258.087 138.556 257.916 138.492 257.746 138.427C257.785 138.369 257.828 138.312 257.877 138.258C258.208 137.881 258.71 137.646 259.264 137.659C259.819 137.671 260.298 137.929 260.59 138.319C260.819 138.624 260.929 138.968 260.911 139.314Z" fill="#3F3D56"/>
<path opacity="0.1" d="M260.998 137.335C260.987 137.682 260.848 138.02 260.596 138.316C260.264 138.691 259.761 138.927 259.208 138.914L259.097 138.908C258.783 138.878 258.491 138.776 258.264 138.616C258.111 138.511 257.981 138.389 257.881 138.255C257.659 137.947 257.551 137.604 257.566 137.257C257.581 136.911 257.719 136.573 257.967 136.276C258.298 135.899 258.801 135.663 259.355 135.676C259.908 135.689 260.389 135.946 260.686 136.336C260.912 136.643 261.019 136.988 260.998 137.335Z" fill="#3F3D56"/>
<path opacity="0.1" d="M261.087 135.359C261.126 134.465 260.389 133.723 259.44 133.701C258.491 133.68 257.69 134.387 257.65 135.281C257.611 136.175 258.349 136.918 259.297 136.939C260.247 136.961 261.048 136.254 261.087 135.359Z" fill="#3F3D56"/>
<path opacity="0.1" d="M261.173 133.38C261.212 132.486 260.475 131.743 259.526 131.722C258.577 131.7 257.775 132.408 257.736 133.302C257.697 134.196 258.434 134.939 259.383 134.96C260.332 134.982 261.134 134.274 261.173 133.38Z" fill="#3F3D56"/>
<path opacity="0.1" d="M261.26 131.4C261.299 130.506 260.562 129.764 259.613 129.742C258.663 129.721 257.862 130.428 257.823 131.322C257.784 132.216 258.521 132.959 259.47 132.98C260.419 133.002 261.221 132.295 261.26 131.4Z" fill="#3F3D56"/>
<path opacity="0.1" d="M253.7 117.669C253.474 117.449 253.27 117.217 253.089 116.976L257.628 116.542L252.743 116.463C252.306 115.718 252.086 114.918 252.094 114.11C252.102 113.302 252.34 112.504 252.792 111.764L259.237 114.359L253.334 111.023C253.932 110.332 254.72 109.738 255.65 109.276C256.581 108.814 257.633 108.495 258.742 108.338C259.852 108.182 260.994 108.192 262.098 108.367C263.202 108.542 264.244 108.878 265.159 109.356C266.074 109.833 266.843 110.441 267.418 111.141C267.993 111.842 268.361 112.62 268.5 113.427C268.639 114.235 268.545 115.054 268.225 115.834C267.905 116.614 267.365 117.339 266.64 117.963C266.991 118.306 267.29 118.675 267.531 119.065L261.573 121.123L267.89 119.755C268.288 120.699 268.352 121.699 268.078 122.666C267.804 123.632 267.199 124.534 266.319 125.29C267.236 126.186 267.784 127.249 267.901 128.358C268.017 129.467 267.698 130.578 266.979 131.563C266.26 132.548 265.171 133.367 263.835 133.927C262.5 134.487 260.973 134.766 259.428 134.731C257.883 134.696 256.383 134.348 255.1 133.728C253.816 133.109 252.801 132.241 252.17 131.226C251.539 130.211 251.317 129.088 251.531 127.986C251.745 126.884 252.385 125.848 253.378 124.996C252.283 123.925 251.719 122.621 251.777 121.293C251.836 119.964 252.513 118.688 253.7 117.67V117.669Z" fill="#FFE1B0"/>
<path opacity="0.1" d="M268.241 121.666C268.185 122.995 267.508 124.272 266.319 125.29C267.236 126.186 267.784 127.249 267.901 128.358C268.017 129.467 267.698 130.578 266.979 131.563C266.26 132.548 265.171 133.367 263.835 133.927C262.5 134.487 260.973 134.766 259.428 134.731C257.883 134.696 256.383 134.348 255.1 133.728C253.816 133.109 252.801 132.241 252.17 131.226C251.539 130.211 251.317 129.088 251.531 127.986C251.745 126.884 252.385 125.848 253.378 124.996C252.319 123.962 268.272 121 268.241 121.666Z" fill="black"/>
</g>
<g opacity="0.1">
<path opacity="0.1" d="M318.452 128.972C318.452 129.025 318.445 129.077 318.437 129.131C317.825 128.956 317.224 128.769 316.635 128.569C316.32 128.539 316.027 128.437 315.801 128.277C315.629 128.214 315.457 128.15 315.287 128.085C315.326 128.027 315.369 127.97 315.417 127.916C315.749 127.539 316.25 127.304 316.805 127.316C317.36 127.329 317.839 127.587 318.131 127.976C318.359 128.282 318.47 128.625 318.452 128.972Z" fill="#3F3D56"/>
<path opacity="0.1" d="M318.545 126.993C318.534 127.339 318.395 127.678 318.142 127.973C317.811 128.348 317.309 128.585 316.754 128.572L316.644 128.566C316.329 128.536 316.036 128.433 315.809 128.274C315.656 128.168 315.527 128.047 315.426 127.913C315.204 127.605 315.096 127.261 315.111 126.915C315.126 126.568 315.264 126.23 315.512 125.933C315.844 125.557 316.346 125.321 316.9 125.334C317.454 125.346 317.935 125.604 318.231 125.994C318.458 126.3 318.566 126.646 318.545 126.993Z" fill="#3F3D56"/>
<path opacity="0.1" d="M318.631 125.016C318.671 124.122 317.933 123.38 316.984 123.358C316.035 123.336 315.234 124.044 315.195 124.938C315.156 125.832 315.893 126.575 316.842 126.596C317.791 126.618 318.592 125.91 318.631 125.016Z" fill="#3F3D56"/>
<path opacity="0.1" d="M318.719 123.037C318.758 122.143 318.02 121.401 317.071 121.379C316.122 121.357 315.321 122.065 315.282 122.959C315.243 123.853 315.98 124.596 316.929 124.617C317.878 124.639 318.679 123.931 318.719 123.037Z" fill="#3F3D56"/>
<path opacity="0.1" d="M318.805 121.058C318.845 120.164 318.107 119.422 317.158 119.4C316.209 119.378 315.408 120.086 315.369 120.98C315.329 121.874 316.067 122.617 317.016 122.638C317.965 122.66 318.766 121.952 318.805 121.058Z" fill="#3F3D56"/>
<path opacity="0.1" d="M311.241 107.327C311.015 107.106 310.811 106.875 310.631 106.634L315.17 106.204L310.285 106.119C309.849 105.374 309.628 104.574 309.636 103.766C309.644 102.958 309.881 102.16 310.332 101.42L316.777 104.015L310.875 100.681C311.471 99.9884 312.259 99.3919 313.19 98.9285C314.121 98.4651 315.174 98.1448 316.285 97.9874C317.395 97.83 318.539 97.8391 319.644 98.0139C320.749 98.1888 321.793 98.5257 322.709 99.0036C323.626 99.4816 324.396 100.09 324.971 100.792C325.546 101.494 325.914 102.273 326.052 103.081C326.19 103.89 326.095 104.71 325.773 105.491C325.451 106.272 324.909 106.997 324.18 107.62C324.532 107.963 324.83 108.333 325.071 108.722L319.113 110.78L325.43 109.413C325.828 110.357 325.893 111.357 325.619 112.323C325.344 113.289 324.739 114.191 323.859 114.947C324.775 115.842 325.324 116.906 325.441 118.015C325.557 119.124 325.238 120.234 324.519 121.219C323.801 122.204 322.712 123.023 321.376 123.583C320.041 124.144 318.514 124.422 316.969 124.387C315.424 124.352 313.925 124.004 312.641 123.385C311.358 122.765 310.343 121.898 309.712 120.882C309.081 119.867 308.86 118.744 309.074 117.643C309.287 116.541 309.928 115.505 310.921 114.653C309.826 113.582 309.262 112.278 309.32 110.949C309.379 109.621 310.056 108.345 311.243 107.327H311.241Z" fill="#FFE1B0"/>
<path opacity="0.1" d="M325.783 111.324C325.727 112.653 325.05 113.929 323.86 114.947C324.777 115.843 325.325 116.906 325.441 118.015C325.558 119.124 325.239 120.234 324.52 121.219C323.801 122.203 322.712 123.023 321.377 123.583C320.042 124.143 318.515 124.422 316.97 124.387C315.425 124.351 313.925 124.004 312.642 123.384C311.358 122.765 310.343 121.898 309.712 120.882C309.082 119.867 308.86 118.744 309.074 117.643C309.288 116.541 309.928 115.505 310.921 114.653C309.861 113.619 325.811 110.657 325.783 111.324Z" fill="black"/>
</g>
<path d="M263.157 122.109V140.082C261.333 140.018 259.51 139.94 257.689 139.85L256.859 139.808V122.109C256.859 122.017 256.884 121.926 256.933 121.84C256.982 121.755 257.054 121.678 257.144 121.613C257.235 121.548 257.342 121.496 257.46 121.461C257.578 121.426 257.705 121.407 257.833 121.407H262.182C262.31 121.407 262.437 121.426 262.555 121.461C262.673 121.496 262.781 121.548 262.872 121.613C262.962 121.678 263.034 121.755 263.083 121.84C263.132 121.926 263.157 122.017 263.157 122.109Z" fill="#3F3D56"/>
<path d="M271.223 140.305V110.101C271.223 109.915 271.325 109.736 271.508 109.605C271.691 109.473 271.939 109.399 272.197 109.399H276.546C276.674 109.399 276.801 109.417 276.919 109.452C277.037 109.488 277.145 109.54 277.235 109.605C277.326 109.67 277.398 109.747 277.447 109.832C277.495 109.917 277.521 110.009 277.521 110.101V140.384L271.223 140.305Z" fill="#3F3D56"/>
<path d="M285.587 140.4V116.383C285.587 116.197 285.689 116.019 285.872 115.887C286.055 115.756 286.303 115.682 286.561 115.682H290.91C291.168 115.682 291.417 115.756 291.599 115.887C291.782 116.019 291.885 116.197 291.885 116.383V140.348L285.587 140.4Z" fill="#3F3D56"/>
<path d="M306.249 98.5693V140.11C304.149 140.152 302.05 140.193 299.951 140.23V98.5693C299.951 98.3833 300.053 98.2049 300.236 98.0734C300.419 97.9418 300.667 97.8679 300.925 97.8679H305.274C305.533 97.8679 305.78 97.9418 305.963 98.0734C306.146 98.2049 306.249 98.3833 306.249 98.5693Z" fill="#3F3D56"/>
<path d="M320.613 106.92V139.764C318.513 139.837 316.414 139.889 314.315 139.934V106.92C314.315 106.734 314.417 106.555 314.6 106.424C314.783 106.292 315.031 106.218 315.289 106.218H319.638C319.897 106.218 320.144 106.292 320.327 106.424C320.51 106.555 320.613 106.734 320.613 106.92Z" fill="#3F3D56"/>
<path d="M260.063 111.627L274.427 100.096L288.791 105.902L303.155 88.0879L317.519 96.5971" stroke="#3F3D56" stroke-width="7" stroke-miterlimit="10" stroke-linecap="round"/>
<path d="M260.008 113.854C261.716 113.854 263.102 112.857 263.102 111.627C263.102 110.398 261.716 109.401 260.008 109.401C258.299 109.401 256.914 110.398 256.914 111.627C256.914 112.857 258.299 113.854 260.008 113.854Z" fill="#6C63FF"/>
<path d="M274.372 102.323C276.08 102.323 277.465 101.326 277.465 100.096C277.465 98.8665 276.08 97.8695 274.372 97.8695C272.663 97.8695 271.278 98.8665 271.278 100.096C271.278 101.326 272.663 102.323 274.372 102.323Z" fill="#6C63FF"/>
<path d="M288.736 108.128C290.444 108.128 291.83 107.131 291.83 105.902C291.83 104.672 290.444 103.675 288.736 103.675C287.027 103.675 285.642 104.672 285.642 105.902C285.642 107.131 287.027 108.128 288.736 108.128Z" fill="#6C63FF"/>
<path d="M303.1 90.3145C304.808 90.3145 306.193 89.3176 306.193 88.0879C306.193 86.8581 304.808 85.8611 303.1 85.8611C301.391 85.8611 300.006 86.8581 300.006 88.0879C300.006 89.3176 301.391 90.3145 303.1 90.3145Z" fill="#6C63FF"/>
<path d="M317.16 99.2014C318.869 99.2014 320.254 98.2045 320.254 96.9747C320.254 95.7449 318.869 94.748 317.16 94.748C315.452 94.748 314.067 95.7449 314.067 96.9747C314.067 98.2045 315.452 99.2014 317.16 99.2014Z" fill="#6C63FF"/>
</svg>
