<svg viewBox="0 0 781 277" fill="none" xmlns="http://www.w3.org/2000/svg">
<path d="M14.0787 265.879L125.541 154.417" stroke="#FCBB52" stroke-width="14.1732"/>
<path d="M161.306 210.148L304.021 67.4322" stroke="#FCBB52" stroke-width="14.1732"/>
<path d="M432.529 154.919L545.373 42.0739" stroke="#FCBB52" stroke-width="14.1732"/>
<path d="M586.458 103.125L684.365 5.21753" stroke="#FCBB52" stroke-width="14.1732"/>
<path d="M362.946 146.323L403.423 105.846" stroke="#FCBB52" stroke-width="14.1732"/>
<path d="M294.038 67.432L372.929 146.323" stroke="#FCBB52" stroke-width="14.1732"/>
<path d="M535.39 42.0737L596.441 103.125" stroke="#FCBB52" stroke-width="14.1732"/>
<path d="M393.439 105.846L442.512 154.919" stroke="#FCBB52" stroke-width="14.1732"/>
<path d="M115.558 154.416L171.289 210.147" stroke="#FCBB52" stroke-width="14.1732"/>
<path d="M0.340271 269.543H780.271" stroke="#FFFDE8" stroke-width="14.1732"/>
<path d="M7.41608 276.496V2.56049" stroke="#FFFDE8" stroke-width="14.1732"/>
<path fill-rule="evenodd" clip-rule="evenodd" d="M116.164 84.7728C128.219 84.7728 139.102 87.2085 148.874 92.0177C158.617 96.827 166.386 103.826 172.15 112.982C177.946 122.107 180.845 133.206 180.845 146.216C180.845 155.126 179.364 163.511 176.405 171.403C173.445 179.296 169.283 186.232 163.858 192.275C158.431 198.287 151.927 202.972 144.343 206.364C136.758 209.725 128.28 211.42 118.877 211.42C113.328 211.42 107.47 211.204 101.274 210.772C95.0465 210.372 89.0038 209.755 83.1154 208.984C77.1963 208.183 71.8008 207.32 66.8372 206.364V89.8595C74.5447 88.5343 82.7143 87.3316 91.3158 86.3146C99.948 85.297 108.211 84.7728 116.164 84.7728ZM117.243 116.404C114.469 116.404 111.632 116.619 108.673 117.021C105.713 117.452 103.031 117.976 100.627 118.562V177.631C103.401 178.463 106.238 179.049 109.104 179.358C112.002 179.666 114.715 179.789 117.243 179.789C123.378 179.789 128.589 178.402 132.874 175.565C137.159 172.729 140.427 168.906 142.709 164.097C145.021 159.256 146.161 153.923 146.161 148.004C146.161 138.632 143.664 130.986 138.639 125.159C133.645 119.333 126.523 116.404 117.243 116.404V116.404Z" fill="#FFFDE8"/>
<path fill-rule="evenodd" clip-rule="evenodd" d="M235.936 113.876C240.746 113.876 245.462 114.924 250.118 117.021C254.742 119.148 258.565 121.83 261.586 125.067V116.589H292.662V208.707H261.586V193.354C259.305 198.41 255.79 202.695 251.104 206.179C246.418 209.662 240.746 211.42 234.117 211.42C227.273 211.42 220.83 209.662 214.787 206.179C208.775 202.695 203.874 197.3 200.082 190.024C196.29 182.718 194.378 173.531 194.378 162.463C194.378 152.104 196.29 143.318 200.082 136.104C203.874 128.859 208.93 123.341 215.25 119.548C221.57 115.756 228.475 113.876 235.936 113.876V113.876ZM242.441 144.212C237.971 144.212 234.271 146.031 231.312 149.638C228.383 153.245 226.903 157.53 226.903 162.463C226.903 167.396 228.414 171.558 231.405 174.918C234.425 178.309 238.403 179.974 243.335 179.974C245.987 179.974 248.7 179.296 251.474 177.908C254.218 176.521 256.623 174.425 258.596 171.589C260.599 168.752 261.586 165.115 261.586 160.644V151.796C258.935 149.638 255.945 147.819 252.646 146.37C249.316 144.952 245.925 144.212 242.441 144.212Z" fill="#FFFDE8"/>
<path fill-rule="evenodd" clip-rule="evenodd" d="M359.13 89.4898V116.589H383.331V140.975H359.13V166.81C359.13 171.249 360.055 174.764 361.936 177.353C363.816 179.943 366.406 181.238 369.798 181.238C375.1 181.238 379.971 179.912 384.41 177.261V201.493C382.499 204.144 379.447 206.456 375.316 208.43C371.154 210.433 366.067 211.42 360.024 211.42C354.259 211.42 348.957 210.094 344.147 207.443C339.338 204.792 335.453 200.999 332.494 196.067C329.534 191.134 328.055 185.153 328.055 178.186V140.975H312.516V121.984C318.435 120.442 324.232 117.02 329.966 111.779C335.669 106.569 339.862 99.1088 342.514 89.4898H359.13Z" fill="#FFFDE8"/>
<path fill-rule="evenodd" clip-rule="evenodd" d="M438.609 113.876C443.418 113.876 448.135 114.924 452.79 117.021C457.414 119.148 461.237 121.83 464.259 125.067V116.589H495.334V208.707H464.259V193.354C461.977 198.41 458.463 202.695 453.776 206.179C449.09 209.662 443.418 211.42 436.789 211.42C429.946 211.42 423.503 209.662 417.46 206.179C411.448 202.695 406.546 197.3 402.754 190.024C398.962 182.718 397.051 173.531 397.051 162.463C397.051 152.104 398.962 143.318 402.754 136.104C406.546 128.859 411.602 123.341 417.922 119.548C424.242 115.756 431.148 113.876 438.609 113.876V113.876ZM445.113 144.212C440.643 144.212 436.944 146.031 433.984 149.638C431.056 153.245 429.575 157.53 429.575 162.463C429.575 167.396 431.086 171.558 434.077 174.918C437.098 178.309 441.075 179.974 446.008 179.974C448.659 179.974 451.372 179.296 454.147 177.908C456.89 176.521 459.295 174.425 461.268 171.589C463.272 168.752 464.259 165.115 464.259 160.644V151.796C461.607 149.638 458.617 147.819 455.318 146.37C451.989 144.952 448.598 144.212 445.113 144.212Z" fill="#FFFDE8"/>
<path fill-rule="evenodd" clip-rule="evenodd" d="M552.77 113.876C558.781 113.876 564.361 114.739 569.479 116.496C574.597 118.223 578.728 120.628 581.873 123.618V148.004C578.728 146.092 575.183 144.243 571.206 142.516C567.229 140.759 562.943 139.896 558.381 139.896C555.483 139.896 552.924 140.451 550.704 141.591C548.454 142.732 547.344 144.52 547.344 146.925C547.344 148.62 548.022 149.885 549.348 150.717C550.673 151.549 553.263 152.474 557.117 153.43L562.697 154.879C578.728 158.979 586.744 167.58 586.744 180.714C586.744 186.726 584.955 192.059 581.411 196.684C577.865 201.339 573.21 204.945 567.506 207.535C561.772 210.125 555.606 211.42 548.978 211.42C542.103 211.42 535.721 210.433 529.833 208.43C523.944 206.456 518.888 204.021 514.665 201.123V176.922C518.981 179.573 523.913 181.793 529.37 183.612C534.858 185.4 539.76 186.294 544.107 186.294C547.59 186.294 550.149 185.893 551.783 185.03C553.417 184.198 554.219 182.687 554.219 180.529C554.219 178.833 553.263 177.538 551.321 176.645C549.41 175.751 546.635 174.671 543.028 173.469L533.81 170.602C527.058 168.536 522.126 165.33 518.981 160.921C515.867 156.544 514.295 151.148 514.295 144.767C514.295 138.385 515.991 132.898 519.351 128.335C522.742 123.741 527.335 120.196 533.162 117.668C539.02 115.14 545.556 113.876 552.77 113.876V113.876Z" fill="#FCBB52"/>
<path fill-rule="evenodd" clip-rule="evenodd" d="M645.628 113.876C654.291 113.876 661.998 115.787 668.75 119.641C675.502 123.494 680.774 128.889 684.565 135.826C688.358 142.732 690.239 150.964 690.239 160.459V171.126H627.562C628.888 175.596 631.539 178.895 635.516 181.053C639.493 183.242 644.056 184.321 649.235 184.321C656.233 184.321 662.276 183.334 667.394 181.331C672.511 179.358 676.334 177.631 678.862 176.182V202.757C675.749 204.669 671.432 206.61 665.945 208.522C660.457 210.464 654.291 211.42 647.447 211.42C640.942 211.42 634.653 210.341 628.549 208.152C622.475 205.994 617.019 202.849 612.209 198.78C607.4 194.68 603.608 189.716 600.833 183.859C598.059 178.032 596.671 171.434 596.671 164.097C596.671 154.94 598.798 146.555 603.084 138.971C607.369 131.387 613.196 125.314 620.595 120.72C628.024 116.157 636.348 113.876 645.628 113.876V113.876ZM644.734 139.526C640.757 139.526 637.304 140.574 634.437 142.671C631.539 144.798 629.443 148.004 628.117 152.351H660.796C660.796 148.004 659.131 144.798 655.833 142.671C652.534 140.574 648.834 139.526 644.734 139.526V139.526Z" fill="#FCBB52"/>
<path fill-rule="evenodd" clip-rule="evenodd" d="M770.271 150.717C768.484 149.761 766.572 148.991 764.599 148.467C762.594 147.912 760.282 147.665 757.631 147.665C753.407 147.665 749.677 148.929 746.44 151.457C743.172 153.985 740.521 157.283 738.486 161.384V208.707H707.41V116.589H738.486V133.021C741.384 128.088 744.591 123.803 748.136 120.196C751.712 116.589 756.367 114.77 762.163 114.77C765.277 114.77 767.99 115.325 770.271 116.404V150.717Z" fill="#FCBB52"/>
</svg>
